<?xml version="1.0" encoding="UTF-8"?>
<svg id="Layer_2" data-name="Layer 2" xmlns="http://www.w3.org/2000/svg" viewBox="0 0 440.66 54.11">
  <defs>
    <style>
      .cls-1 {
        fill: #2563eb;
      }
      .cls-2 {
        fill: #ffffff;
      }
      .cls-1, .cls-2 {
        stroke-width: 0px;
      }
    </style>
  </defs>
  <g id="Layer_1-2" data-name="Layer 1">
    <g>
      <rect class="cls-1" x="177.39" y="21.78" width="18.97" height="6.07"/>
      <g>
        <path class="cls-2" d="m23.3,12.39c-1.96-1.27-4.17-1.9-6.65-1.9-1.76,0-3.23.28-4.41.85-1.18.57-2.15,1.27-2.89,2.11-.75.84-1.34,1.68-1.77,2.51h-.4v-5.02H0v43.16h7.32v-16.76h.28c.43.85,1.03,1.7,1.79,2.54.76.84,1.73,1.55,2.91,2.11,1.18.57,2.62.85,4.32.85,2.53,0,4.78-.65,6.75-1.94,1.97-1.29,3.51-3.15,4.62-5.56,1.12-2.41,1.67-5.31,1.67-8.69s-.57-6.36-1.72-8.76c-1.14-2.4-2.69-4.23-4.65-5.5Zm-1.97,19.51c-.59,1.53-1.44,2.73-2.55,3.59-1.12.86-2.48,1.29-4.08,1.29s-2.95-.42-4.08-1.28c-1.13-.85-2-2.04-2.59-3.56-.6-1.52-.89-3.29-.89-5.32s.3-3.82.89-5.33c.6-1.51,1.46-2.68,2.58-3.52,1.12-.83,2.49-1.25,4.1-1.25s3,.43,4.11,1.28c1.12.85,1.96,2.03,2.54,3.54.58,1.51.86,3.27.86,5.27s-.29,3.74-.88,5.27Z"/>
        <path class="cls-2" d="m50.85,10.55c-1.85,0-3.46.48-4.82,1.45-1.36.96-2.33,2.35-2.89,4.17h-.28v-5.22h-7.09v31.31h7.32v-18.26c0-1.42.3-2.64.91-3.67.6-1.03,1.43-1.83,2.48-2.4,1.05-.57,2.23-.85,3.53-.85.66,0,1.33.04,2,.11.67.08,1.16.15,1.46.23v-6.69c-.34-.06-.75-.1-1.23-.13s-.94-.04-1.38-.04Z"/>
        <path class="cls-2" d="m78.85,12.52c-2.26-1.35-4.92-2.03-7.98-2.03s-5.7.68-7.96,2.03c-2.26,1.35-4.01,3.25-5.25,5.69s-1.86,5.27-1.86,8.51.62,6.06,1.86,8.49c1.24,2.43,2.99,4.32,5.25,5.67s4.91,2.03,7.96,2.03,5.72-.68,7.98-2.03c2.26-1.35,4.01-3.24,5.25-5.67,1.24-2.43,1.86-5.26,1.86-8.49s-.62-6.07-1.86-8.51c-1.24-2.44-2.99-4.33-5.25-5.69Zm-1.19,19.4c-.58,1.54-1.43,2.76-2.57,3.66-1.13.9-2.54,1.35-4.23,1.35s-3.06-.45-4.2-1.35c-1.13-.9-1.99-2.12-2.55-3.66-.57-1.54-.85-3.28-.85-5.2s.28-3.72.85-5.26c.57-1.54,1.42-2.76,2.55-3.64s2.53-1.33,4.2-1.33,3.09.44,4.23,1.33,1.99,2.1,2.57,3.64c.58,1.54.87,3.29.87,5.26s-.29,3.66-.87,5.2Z"/>
        <path class="cls-2" d="m108.59,24.42l-5.39-1.13c-1.53-.34-2.65-.8-3.35-1.39-.7-.59-1.05-1.34-1.05-2.27,0-1.06.51-1.93,1.53-2.62,1.02-.69,2.32-1.04,3.89-1.04,1.68,0,3.01.4,3.97,1.19s1.59,1.76,1.87,2.89l6.61-.99c-.34-1.74-1.04-3.25-2.11-4.52-1.07-1.28-2.48-2.27-4.23-2.98-1.75-.71-3.82-1.06-6.23-1.06s-4.72.39-6.61,1.18c-1.89.79-3.37,1.89-4.42,3.32-1.06,1.43-1.59,3.11-1.59,5.03,0,2.31.74,4.2,2.21,5.67,1.48,1.47,3.7,2.53,6.67,3.18l5.33,1.13c1.4.3,2.45.75,3.16,1.33.71.59,1.06,1.33,1.06,2.24,0,1.06-.52,1.95-1.57,2.67-1.05.72-2.47,1.08-4.27,1.08s-3.21-.38-4.31-1.15c-1.1-.77-1.82-1.92-2.18-3.47l-6.95,1.02c.32,1.97,1.08,3.63,2.27,5,1.19,1.37,2.73,2.41,4.62,3.12s4.05,1.06,6.47,1.06c2.63,0,4.95-.42,6.96-1.26,2.01-.84,3.59-2.01,4.74-3.5,1.14-1.49,1.72-3.24,1.72-5.25,0-2.21-.72-4.02-2.17-5.42-1.45-1.4-3.66-2.42-6.65-3.06Z"/>
        <path class="cls-2" d="m136.84,36.53c-.57.06-1.03.08-1.39.08-1.13,0-1.94-.25-2.42-.77s-.72-1.32-.72-2.44v-16.7h6.13v-5.76h-6.13V3.26h-7.32v7.69h-4.68v5.76h4.68v17.41c0,2.74.79,4.84,2.38,6.3,1.59,1.46,3.9,2.18,6.95,2.18.79,0,1.61-.04,2.44-.13.83-.08,1.62-.22,2.35-.41l-.91-5.7c-.34.06-.79.11-1.36.17Z"/>
        <path class="cls-2" d="m165.76,12.89c-1.23-.84-2.6-1.45-4.13-1.83s-3.08-.57-4.67-.57c-2.23,0-4.26.33-6.08.98s-3.37,1.62-4.62,2.89-2.14,2.87-2.65,4.78l6.83,1.08c.23-.74.62-1.41,1.18-2.03.56-.61,1.29-1.11,2.18-1.47.9-.37,1.94-.55,3.13-.55s2.22.19,3.03.57c.81.38,1.43.92,1.86,1.63.43.71.64,1.56.64,2.57v.17c0,.7-.26,1.22-.78,1.56s-1.35.59-2.48.74c-1.13.15-2.63.33-4.48.54-1.53.15-3.02.41-4.45.77-1.44.36-2.73.88-3.87,1.57-1.14.69-2.05,1.61-2.71,2.77-.66,1.15-.99,2.62-.99,4.4,0,2.06.46,3.79,1.39,5.19.93,1.4,2.19,2.46,3.79,3.18,1.6.72,3.4,1.08,5.4,1.08,1.65,0,3.07-.23,4.27-.68,1.2-.45,2.21-1.06,3.02-1.82.81-.76,1.45-1.58,1.9-2.47h.25v4.34h7.06v-21.01c0-1.99-.36-3.66-1.09-5.03-.73-1.37-1.71-2.48-2.94-3.32Zm-3.23,18.05c0,1.17-.3,2.25-.89,3.23-.6.98-1.45,1.77-2.55,2.37s-2.42.89-3.93.89c-1.06,0-1.99-.16-2.78-.47-.79-.31-1.42-.77-1.87-1.38-.45-.6-.68-1.35-.68-2.24,0-.96.26-1.74.77-2.34.51-.59,1.21-1.07,2.08-1.42.88-.35,1.86-.6,2.94-.75.53-.06,1.14-.14,1.83-.24.69-.1,1.38-.22,2.07-.34.69-.12,1.3-.26,1.84-.42.54-.16.93-.34,1.18-.52v3.63Z"/>
        <path class="cls-2" d="m220.5,24.42l-5.39-1.13c-1.53-.34-2.65-.8-3.35-1.39-.7-.59-1.05-1.34-1.05-2.27,0-1.06.51-1.93,1.53-2.62,1.02-.69,2.32-1.04,3.89-1.04,1.68,0,3.01.4,3.97,1.19s1.59,1.76,1.87,2.89l6.61-.99c-.34-1.74-1.04-3.25-2.11-4.52-1.07-1.28-2.48-2.27-4.23-2.98s-3.82-1.06-6.23-1.06-4.72.39-6.61,1.18c-1.89.79-3.37,1.89-4.42,3.32-1.06,1.43-1.59,3.11-1.59,5.03,0,2.31.74,4.2,2.21,5.67,1.48,1.47,3.7,2.53,6.67,3.18l5.33,1.13c1.4.3,2.45.75,3.16,1.33.71.59,1.06,1.33,1.06,2.24,0,1.06-.52,1.95-1.57,2.67-1.05.72-2.47,1.08-4.27,1.08s-3.21-.38-4.31-1.15c-1.1-.77-1.82-1.92-2.18-3.47l-6.95,1.02c.32,1.97,1.08,3.63,2.27,5,1.19,1.37,2.73,2.41,4.62,3.12s4.05,1.06,6.47,1.06c2.63,0,4.95-.42,6.96-1.26,2.01-.84,3.59-2.01,4.74-3.5,1.14-1.49,1.72-3.24,1.72-5.25,0-2.21-.72-4.02-2.17-5.42-1.45-1.4-3.66-2.42-6.65-3.06Z"/>
        <path class="cls-2" d="m248.74,36.53c-.57.06-1.03.08-1.39.08-1.13,0-1.94-.25-2.42-.77-.48-.51-.72-1.32-.72-2.44v-16.7h6.13v-5.76h-6.13V3.26h-7.32v7.69h-4.68v5.76h4.68v17.41c0,2.74.79,4.84,2.38,6.3,1.59,1.46,3.9,2.18,6.95,2.18.79,0,1.61-.04,2.44-.13s1.62-.22,2.35-.41l-.91-5.7c-.34.06-.79.11-1.36.17Z"/>
        <path class="cls-2" d="m270.98,10.55c-1.85,0-3.46.48-4.82,1.45-1.36.96-2.33,2.35-2.89,4.17h-.28v-5.22h-7.09v31.31h7.32v-18.26c0-1.42.3-2.64.91-3.67.61-1.03,1.43-1.83,2.48-2.4,1.05-.57,2.23-.85,3.53-.85.66,0,1.33.04,2,.11.67.08,1.16.15,1.46.23v-6.69c-.34-.06-.75-.1-1.23-.13-.48-.03-.94-.04-1.38-.04Z"/>
        <path class="cls-2" d="m298.98,12.52c-2.26-1.35-4.92-2.03-7.98-2.03s-5.7.68-7.96,2.03c-2.26,1.35-4.01,3.25-5.25,5.69-1.24,2.44-1.86,5.27-1.86,8.51s.62,6.06,1.86,8.49c1.24,2.43,2.99,4.32,5.25,5.67,2.26,1.35,4.91,2.03,7.96,2.03s5.72-.68,7.98-2.03c2.26-1.35,4.01-3.24,5.25-5.67,1.24-2.43,1.86-5.26,1.86-8.49s-.62-6.07-1.86-8.51-2.99-4.33-5.25-5.69Zm-1.19,19.4c-.58,1.54-1.43,2.76-2.57,3.66-1.13.9-2.54,1.35-4.23,1.35s-3.06-.45-4.2-1.35c-1.13-.9-1.99-2.12-2.55-3.66s-.85-3.28-.85-5.2.28-3.72.85-5.26c.57-1.54,1.42-2.76,2.55-3.64s2.53-1.33,4.2-1.33,3.09.44,4.23,1.33,1.99,2.1,2.57,3.64c.58,1.54.87,3.29.87,5.26s-.29,3.66-.87,5.2Z"/>
        <path class="cls-2" d="m334.59,11.88c-1.63-.93-3.52-1.39-5.67-1.39-2.59,0-4.75.69-6.48,2.07-1.3,1.04-2.36,2.45-3.18,4.24l-.06-5.85h-7v31.31h7.32v-18.21c0-1.59.29-2.92.88-4s1.38-1.9,2.4-2.45c1.01-.56,2.16-.84,3.45-.84,1.95,0,3.46.6,4.55,1.79,1.09,1.19,1.63,2.86,1.63,5.02v18.69h7.32v-19.82c0-2.55-.45-4.72-1.35-6.49-.9-1.78-2.16-3.13-3.79-4.06Z"/>
        <path class="cls-2" d="m368.62,12.89c-1.23-.84-2.6-1.45-4.13-1.83-1.52-.38-3.08-.57-4.67-.57-2.23,0-4.26.33-6.08.98s-3.37,1.62-4.62,2.89c-1.26,1.28-2.14,2.87-2.65,4.78l6.83,1.08c.23-.74.62-1.41,1.18-2.03.56-.61,1.29-1.11,2.18-1.47.9-.37,1.94-.55,3.13-.55s2.22.19,3.04.57c.81.38,1.43.92,1.86,1.63.43.71.64,1.56.64,2.57v.17c0,.7-.26,1.22-.78,1.56-.52.34-1.35.59-2.48.74-1.13.15-2.63.33-4.48.54-1.53.15-3.02.41-4.45.77-1.44.36-2.73.88-3.87,1.57-1.14.69-2.05,1.61-2.71,2.77-.66,1.15-.99,2.62-.99,4.4,0,2.06.46,3.79,1.39,5.19.93,1.4,2.19,2.46,3.79,3.18,1.6.72,3.4,1.08,5.4,1.08,1.65,0,3.07-.23,4.27-.68,1.2-.45,2.21-1.06,3.02-1.82.81-.76,1.45-1.58,1.9-2.47h.26v4.34h7.06v-21.01c0-1.99-.36-3.66-1.09-5.03-.73-1.37-1.71-2.48-2.94-3.32Zm-3.23,18.05c0,1.17-.3,2.25-.89,3.23-.6.98-1.45,1.77-2.55,2.37s-2.42.89-3.93.89c-1.06,0-1.99-.16-2.78-.47-.79-.31-1.42-.77-1.87-1.38-.45-.6-.68-1.35-.68-2.24,0-.96.26-1.74.77-2.34.51-.59,1.21-1.07,2.08-1.42.88-.35,1.86-.6,2.93-.75.53-.06,1.14-.14,1.83-.24.69-.1,1.38-.22,2.07-.34.69-.12,1.3-.26,1.84-.42.54-.16.93-.34,1.18-.52v3.63Z"/>
        <path class="cls-2" d="m385.13,33.75c-1.27,0-2.34.43-3.22,1.3-.88.87-1.32,1.94-1.32,3.2s.44,2.31,1.32,3.18c.88.87,1.95,1.3,3.22,1.3s2.31-.44,3.19-1.3c.88-.87,1.32-1.93,1.32-3.18s-.44-2.33-1.32-3.2c-.88-.87-1.94-1.3-3.19-1.3Z"/>
        <path class="cls-2" d="m420.88,12.39c-1.96-1.27-4.17-1.9-6.65-1.9-1.76,0-3.23.28-4.41.85-1.18.57-2.15,1.27-2.89,2.11-.75.84-1.34,1.68-1.77,2.51h-.4v-5.02h-7.18v43.16h7.32v-16.76h.28c.43.85,1.03,1.7,1.79,2.54.76.84,1.72,1.55,2.91,2.11,1.18.57,2.62.85,4.33.85,2.53,0,4.78-.65,6.75-1.94,1.97-1.29,3.51-3.15,4.62-5.56,1.12-2.41,1.67-5.31,1.67-8.69s-.57-6.36-1.72-8.76c-1.14-2.4-2.69-4.23-4.65-5.5Zm-1.97,19.51c-.59,1.53-1.44,2.73-2.55,3.59s-2.48,1.29-4.08,1.29-2.95-.42-4.08-1.28c-1.13-.85-2-2.04-2.6-3.56s-.89-3.29-.89-5.32.3-3.82.89-5.33c.6-1.51,1.46-2.68,2.58-3.52s2.49-1.25,4.1-1.25,3,.43,4.11,1.28,1.96,2.03,2.54,3.54c.58,1.51.87,3.27.87,5.27s-.29,3.74-.88,5.27Z"/>
        <rect class="cls-2" x="433.34" width="7.32" height="42.26"/>
      </g>
    </g>
  </g>
</svg>